<svg width="1370" height="1025" viewBox="0 0 1370 1025" fill="none" xmlns="http://www.w3.org/2000/svg">
<path d="M241.846 421.832V515.072H186.022C146.24 515.072 115.227 505.427 92.9836 486.136C70.7398 466.416 59.618 434.478 59.618 390.323V247.569H15.986V156.258H59.618V68.8049H169.339V156.258H241.204V247.569H169.339V391.609C169.339 402.326 171.906 410.043 177.039 414.758C182.172 419.474 190.728 421.832 202.705 421.832H241.846Z" fill="#3D3D3D"/>
<path d="M380.602 216.06C393.434 196.34 409.476 180.908 428.725 169.762C447.974 158.187 469.363 152.4 492.89 152.4V268.789H462.732C435.355 268.789 414.823 274.791 401.134 286.794C387.446 298.369 380.602 318.946 380.602 348.526V515.072H270.88V156.258H380.602V216.06Z" fill="#3D3D3D"/>
<path d="M568.433 118.962C549.184 118.962 533.357 113.389 520.952 102.243C508.974 90.6681 502.986 76.5213 502.986 59.8024C502.986 42.6548 508.974 28.508 520.952 17.362C533.357 5.78733 549.184 0 568.433 0C587.255 0 602.655 5.78733 614.632 17.362C627.037 28.508 633.24 42.6548 633.24 59.8024C633.24 76.5213 627.037 90.6681 614.632 102.243C602.655 113.389 587.255 118.962 568.433 118.962ZM622.973 156.258V515.072H513.252V156.258H622.973Z" fill="#3D3D3D"/>
<path d="M0 839.806C0 802.938 6.84423 770.572 20.5327 742.707C34.6489 714.842 53.6844 693.408 77.6392 678.403C101.594 663.399 128.329 655.897 157.845 655.897C181.372 655.897 202.76 660.827 222.01 670.687C241.687 680.547 257.086 693.836 268.208 710.555V544.009H377.93V1019.86H268.208V968.413C257.942 985.56 243.184 999.278 223.935 1009.57C205.113 1019.86 183.083 1025 157.845 1025C128.329 1025 101.594 1017.5 77.6392 1002.49C53.6844 987.061 34.6489 965.412 20.5327 937.547C6.84423 909.253 0 876.673 0 839.806ZM268.208 840.448C268.208 813.012 260.508 791.363 245.109 775.502C230.137 759.64 211.743 751.709 189.927 751.709C168.111 751.709 149.504 759.64 134.104 775.502C119.132 790.935 111.646 812.369 111.646 839.806C111.646 867.242 119.132 889.105 134.104 905.395C149.504 921.257 168.111 929.188 189.927 929.188C211.743 929.188 230.137 921.257 245.109 905.395C260.508 889.534 268.208 867.885 268.208 840.448Z" fill="#3D3D3D"/>
<path d="M403.41 839.806C403.41 802.938 410.254 770.572 423.943 742.707C438.059 714.842 457.094 693.408 481.049 678.403C505.004 663.399 531.739 655.897 561.255 655.897C584.782 655.897 606.17 660.827 625.42 670.687C645.097 680.547 660.496 693.836 671.618 710.555V544.009H781.34V1019.86H671.618V968.413C661.352 985.56 646.594 999.278 627.345 1009.57C608.523 1019.86 586.493 1025 561.255 1025C531.739 1025 505.004 1017.5 481.049 1002.49C457.094 987.061 438.059 965.412 423.943 937.547C410.254 909.253 403.41 876.673 403.41 839.806ZM671.618 840.448C671.618 813.012 663.918 791.363 648.519 775.502C633.547 759.64 615.153 751.709 593.337 751.709C571.521 751.709 552.914 759.64 537.514 775.502C522.542 790.935 515.056 812.369 515.056 839.806C515.056 867.242 522.542 889.105 537.514 905.395C552.914 921.257 571.521 929.188 593.337 929.188C615.153 929.188 633.547 921.257 648.519 905.395C663.918 889.534 671.618 867.885 671.618 840.448Z" fill="#3D3D3D"/>
<path d="M806.82 839.806C806.82 802.938 813.664 770.572 827.353 742.707C841.469 714.842 860.504 693.408 884.459 678.403C908.414 663.399 935.149 655.897 964.665 655.897C988.192 655.897 1009.58 660.827 1028.83 670.687C1048.51 680.547 1063.91 693.836 1075.03 710.555V544.009H1184.75V1019.86H1075.03V968.413C1064.76 985.56 1050 999.278 1030.75 1009.57C1011.93 1019.86 989.903 1025 964.665 1025C935.149 1025 908.414 1017.5 884.459 1002.49C860.504 987.061 841.469 965.412 827.353 937.547C813.664 909.253 806.82 876.673 806.82 839.806ZM1075.03 840.448C1075.03 813.012 1067.33 791.363 1051.93 775.502C1036.96 759.64 1018.56 751.709 996.747 751.709C974.931 751.709 956.324 759.64 940.924 775.502C925.952 790.935 918.467 812.369 918.467 839.806C918.467 867.242 925.952 889.105 940.924 905.395C956.324 921.257 974.931 929.188 996.747 929.188C1018.56 929.188 1036.96 921.257 1051.93 905.395C1067.33 889.534 1075.03 867.885 1075.03 840.448Z" fill="#3D3D3D"/>
<path d="M1350.11 661.041V1019.86H1240.39V661.041H1350.11ZM1370 571.659L1215.36 636.606V560.728L1370 486.135V571.659Z" fill="#3D3D3D"/>
</svg>
